<?xml version="1.0" encoding="UTF-8"?>
<svg xmlns="http://www.w3.org/2000/svg" xmlns:xlink="http://www.w3.org/1999/xlink" width="200px" height="54px" viewBox="0 0 200 54" version="1.1">
<g id="surface1">
<path style=" stroke:none;fill-rule:nonzero;fill:rgb(0%,0%,0%);fill-opacity:1;" d="M 131.085938 16.4375 C 125.398438 16.4375 122.585938 19.992188 122.585938 24.882812 L 122.585938 29.53125 C 122.585938 34.363281 125.429688 37.949219 131.085938 37.949219 C 136.804688 37.949219 139.621094 34.363281 139.621094 29.53125 L 139.621094 24.882812 C 139.621094 19.992188 136.804688 16.4375 131.085938 16.4375 Z M 151.644531 16.4375 C 146.519531 16.4375 143.675781 19.636719 143.675781 24.171875 L 143.675781 30.214844 C 143.675781 34.75 146.636719 37.949219 151.5 37.949219 C 156.507812 37.949219 158.820312 35.308594 159.117188 31.488281 L 155.558594 31.488281 C 155.441406 33.710938 154.316406 35.042969 151.589844 35.042969 C 148.925781 35.042969 147.472656 33.207031 147.472656 30.453125 L 147.472656 23.933594 C 147.472656 21.179688 148.921875 19.3125 151.648438 19.3125 C 154.253906 19.3125 155.378906 20.585938 155.496094 22.839844 L 159.027344 22.839844 C 158.933594 19.222656 156.503906 16.4375 151.644531 16.4375 Z M 70.226562 16.824219 L 63.886719 37.5625 L 67.652344 37.5625 L 69.21875 32.113281 L 76.386719 32.113281 L 78.109375 37.5625 L 81.960938 37.5625 L 75.296875 16.824219 Z M 84.75 16.824219 L 84.75 30.863281 C 84.75 34.894531 87.003906 37.945312 91.503906 37.945312 C 92.03125 37.960938 92.550781 37.917969 93.070312 37.824219 C 93.585938 37.730469 94.089844 37.582031 94.578125 37.382812 C 95.0625 37.183594 95.523438 36.9375 95.960938 36.644531 C 96.394531 36.347656 96.800781 36.011719 97.164062 35.636719 L 97.367188 37.5625 L 100.691406 37.5625 L 100.691406 16.824219 L 96.957031 16.824219 L 96.957031 32.738281 C 96.695312 33.101562 96.398438 33.433594 96.058594 33.726562 C 95.71875 34.019531 95.351562 34.269531 94.949219 34.476562 C 94.550781 34.679688 94.132812 34.832031 93.695312 34.933594 C 93.257812 35.035156 92.816406 35.085938 92.367188 35.078125 C 89.519531 35.078125 88.484375 33.390625 88.484375 31.019531 L 88.484375 16.824219 Z M 104.515625 16.824219 L 104.515625 19.695312 L 110.351562 19.695312 L 110.351562 37.5625 L 114.085938 37.5625 L 114.085938 19.695312 L 119.898438 19.695312 L 119.894531 16.824219 Z M 167.707031 16.824219 L 161.363281 37.5625 L 165.128906 37.5625 L 166.691406 32.113281 L 173.863281 32.113281 L 175.582031 37.5625 L 179.4375 37.5625 L 172.773438 16.824219 Z M 183.28125 16.824219 L 183.28125 37.5625 L 189.324219 37.5625 C 195.308594 37.5625 198.507812 34.183594 198.507812 28.792969 L 198.507812 25.121094 C 198.507812 20.144531 195.691406 16.824219 190.0625 16.824219 Z M 131.089844 19.316406 C 134.320312 19.316406 135.859375 21.503906 135.859375 24.855469 L 135.859375 29.597656 C 135.859375 32.851562 134.347656 35.074219 131.089844 35.074219 C 127.832031 35.074219 126.320312 32.855469 126.320312 29.597656 L 126.320312 24.851562 C 126.320312 21.503906 127.859375 19.316406 131.089844 19.316406 Z M 72.746094 19.429688 L 75.5 29.117188 L 70.046875 29.117188 Z M 170.21875 19.429688 L 172.976562 29.117188 L 167.523438 29.117188 Z M 187.015625 19.699219 L 189.886719 19.699219 C 193.175781 19.699219 194.773438 21.652344 194.773438 25.03125 L 194.78125 28.851562 C 194.78125 32.789062 192.976562 34.6875 189.363281 34.6875 L 187.015625 34.6875 Z M 187.015625 19.699219 "/>
<path style=" stroke:none;fill-rule:nonzero;fill:rgb(74.901961%,13.333333%,13.72549%);fill-opacity:1;" d="M 18.054688 1.453125 L 29.292969 1.445312 C 31.839844 5.742188 33.988281 10.273438 35.816406 14.917969 C 36.550781 16.644531 37.289062 18.371094 37.882812 20.152344 C 38.773438 22.757812 39.894531 25.28125 40.742188 27.902344 C 42.414062 33.425781 43.890625 39.003906 45.375 44.574219 C 45.925781 46.792969 46.691406 48.953125 47.191406 51.183594 C 46.40625 51.441406 45.613281 51.6875 44.828125 51.949219 C 43.949219 52.230469 43.011719 52.203125 42.097656 52.28125 C 40.789062 52.410156 39.476562 52.492188 38.167969 52.601562 L 35.015625 50.429688 C 34.871094 49.425781 34.894531 48.398438 34.703125 47.398438 C 34.167969 44.195312 33.328125 41.050781 32.371094 37.945312 L 14.835938 40.382812 C 14.707031 41.085938 14.570312 41.792969 14.4375 42.496094 C 13.851562 45 13.996094 47.59375 13.839844 50.144531 L 9.835938 52.617188 C 9.578125 52.8125 9.242188 52.707031 8.949219 52.703125 C 7.957031 52.601562 6.960938 52.605469 5.976562 52.488281 C 4.96875 52.363281 3.894531 52.542969 2.953125 52.085938 C 2.167969 51.71875 1.355469 51.40625 0.578125 51.019531 C 1.476562 46.765625 2.664062 42.578125 3.824219 38.390625 C 5.257812 33.164062 6.972656 28.019531 8.738281 22.902344 C 11.210938 15.5 14.355469 8.320312 18.054688 1.453125 M 22.925781 16.535156 C 21.464844 20.765625 19.777344 24.914062 18.214844 29.109375 L 27.542969 23.972656 C 26.632812 21.441406 25.71875 18.914062 24.757812 16.402344 C 24.574219 15.980469 24.390625 15.433594 23.886719 15.3125 C 23.289062 15.382812 23.113281 16.058594 22.925781 16.535156 Z M 22.925781 16.535156 "/>
</g>
</svg>
